<!DOCTYPE svg PUBLIC "-//W3C//DTD SVG 1.1//EN" "http://www.w3.org/Graphics/SVG/1.1/DTD/svg11.dtd">
<!-- Uploaded to: SVG Repo, www.svgrepo.com, Transformed by: SVG Repo Mixer Tools -->
<svg fill="#ffffff" height="800px" width="800px" version="1.1" id="Layer_1" xmlns="http://www.w3.org/2000/svg" xmlns:xlink="http://www.w3.org/1999/xlink" viewBox="0 0 512 512" xml:space="preserve" stroke="#ffffff">
<g id="SVGRepo_bgCarrier" stroke-width="0"/>
<g id="SVGRepo_tracerCarrier" stroke-linecap="round" stroke-linejoin="round"/>
<g id="SVGRepo_iconCarrier"> <g> <g> <path d="M382.256,139.126L263.212,2.771c-3.238-3.695-9.454-3.695-12.692,0L130.743,139.126c-1.361,1.556-2.576,3.549-2.576,5.614 v357.931c0,4.706,4.881,9.329,9.587,9.329h238.621c4.706,0,7.457-4.623,7.457-9.329V144.74 C383.833,142.675,383.616,140.682,382.256,139.126z M366.788,494.956H145.212V147.944L256,21.326l110.788,126.617V494.956z"/> </g> </g> <g> <g> <path d="M257.065,68.04c-18.796,0-34.089,15.292-34.089,34.089s15.292,34.089,34.089,34.089c18.796,0,34.089-15.292,34.089-34.089 S275.862,68.04,257.065,68.04z M257.065,119.173c-9.4,0-17.044-7.644-17.044-17.044c0-9.4,7.644-17.044,17.044-17.044 c9.4,0,17.044,7.644,17.044,17.044C274.11,111.529,266.466,119.173,257.065,119.173z"/> </g> </g> </g>
</svg>